<?xml version="1.0" encoding="UTF-8"?>
<svg width="23px" height="23px" viewBox="0 0 23 23" version="1.1" xmlns="http://www.w3.org/2000/svg" xmlns:xlink="http://www.w3.org/1999/xlink">
    <!-- Generator: Sketch 53.1 (72631) - https://sketchapp.com -->
    <title>testflight</title>
    <desc>Created with Sketch.</desc>
    <g id="2-7-首页安装方式修改" stroke="none" stroke-width="1" fill="none" fill-rule="evenodd">
        <g id="testflight">
            <rect id="Rectangle" fill="#021C31" x="0" y="0" width="23" height="23"></rect>
            <g transform="translate(3.833333, 3.833333)" fill="#FFFFFF" fill-rule="nonzero" id="Shape">
                <path d="M15.3333397,7.66666667 C15.3333397,3.45766667 11.9242286,0.0319444395 7.72225639,0.00127777279 L7.70820083,0 L7.62514527,0 L7.61108973,0.00127777279 C3.4091175,0.0319444395 6.39388021e-06,3.45766667 6.39388021e-06,7.66666667 C-0.00107994925,8.98565792 0.340368645,10.282326 0.990923061,11.4297222 C0.997311954,11.4405833 0.9998675,11.4527222 1.00625639,11.4642222 L1.04842306,11.5364167 C1.05481195,11.5472778 1.0631175,11.5555833 1.06950639,11.5664444 C2.40606194,13.8191667 4.86258973,15.3333333 7.66667306,15.3333333 C10.4713953,15.3333333 12.9272842,13.8191667 14.2638397,11.5658056 C14.2702286,11.5549445 14.2791731,11.5466389 14.2862008,11.5351389 L14.3270897,11.4642222 C14.3334786,11.4533611 14.3366731,11.4412222 14.3424231,11.4303611 C14.9929207,10.2827099 15.3343614,8.9858518 15.3333397,7.66666667 Z M8.71764527,0.668277773 C12.122923,1.17747221 14.7436453,4.12147221 14.7436453,7.66666667 C14.7436453,8.48827777 14.6018119,9.27666667 14.3424231,10.0101111 L14.2523397,10.2528889 C14.152888,10.1216725 14.0254236,10.0142881 13.8792286,9.93855556 L9.12270083,7.48586111 C9.07444197,7.091809 8.86832383,6.73421478 8.55153417,6.49494444 L8.80581194,1.15063889 C8.81295369,0.985275582 8.78282163,0.820422676 8.71764527,0.668277773 Z M7.66667306,6.78244444 C8.15414529,6.78244444 8.55153417,7.17855555 8.55153417,7.66666667 C8.55153417,8.15413889 8.15414527,8.55152777 7.66667306,8.55152777 C7.17812379,8.55117542 6.7821643,8.15521594 6.78181194,7.66666667 C6.78181194,7.17919444 7.17920083,6.78180556 7.66667306,6.78180556 L7.66667306,6.78244444 Z M6.61442306,0.668277773 C6.54971555,0.820308313 6.52002021,0.984942774 6.52753417,1.15 L6.78181194,6.49494444 C6.46513448,6.73431384 6.2590461,7.09185643 6.21064527,7.48586111 L1.4541175,9.93855556 C1.30333973,10.0158611 1.17939527,10.1244722 1.08164527,10.2535278 C0.756392789,9.42986504 0.58949118,8.55222267 0.589700833,7.66666667 C0.589700833,4.12211111 3.20914527,1.17811111 6.61442306,0.668277773 L6.61442306,0.668277773 Z M7.66667306,14.743 C5.51477191,14.7428684 3.48020575,13.7621563 2.13964527,12.0788333 C2.3012987,12.0569935 2.45616502,11.9998456 2.59325639,11.9114444 L7.08847861,9.02238889 C7.45778714,9.18021075 7.87555897,9.18021075 8.2448675,9.02238889 L12.7407286,11.9108056 C12.8812842,12.0015278 13.0352564,12.0571111 13.1943397,12.0781944 C11.8538943,13.7621716 9.81901431,14.743392 7.66667306,14.7436389 L7.66667306,14.743 Z"></path>
            </g>
        </g>
    </g>
</svg>